<svg xmlns="http://www.w3.org/2000/svg" viewBox="26 28 48 22" fill="none" aria-hidden="true">
  <path fill="#1A1A1A" d="M46.08 32V48H42.2V38.4L38.64 48H35.48L31.88 38.4V48H28V32H32.6L37.08 43.08L41.52 32H46.12H46.08Z"/>
  <path fill="#1A1A1A" d="M53 47.16C51.76 46.48 50.76 45.48 50 44.24C49.24 43 48.88 41.56 48.88 40C48.88 38.44 49.24 37.04 50 35.8C50.76 34.56 51.72 33.6 53 32.88C54.28 32.16 55.64 31.84 57.12 31.84C58.6 31.84 60 32.2 61.24 32.88C62.48 33.56 63.48 34.56 64.2 35.8C64.92 37.04 65.28 38.44 65.28 40C65.28 41.56 64.92 42.96 64.2 44.24C63.48 45.48 62.48 46.48 61.24 47.16C60 47.84 58.6 48.2 57.12 48.2C55.64 48.2 54.24 47.84 53 47.16ZM60.2 43.36C60.96 42.52 61.36 41.4 61.36 40C61.36 38.6 60.96 37.44 60.2 36.6C59.44 35.76 58.4 35.32 57.12 35.32C55.84 35.32 54.8 35.72 54.04 36.56C53.28 37.4 52.88 38.52 52.88 39.96C52.88 41.4 53.28 42.52 54.04 43.36C54.8 44.2 55.84 44.64 57.12 44.64C58.4 44.64 59.4 44.2 60.2 43.36Z"/>
  <path fill="#1A1A1A" d="M72 32V48H68.12V32H72Z"/>
</svg>
